<?xml version="1.0" encoding="utf-8"?>
<!-- Uploaded to: SVG Repo, www.svgrepo.com, Generator: SVG Repo Mixer Tools -->
<svg width="800px" height="800px" viewBox="0 0 1024 1024" class="icon"  version="1.1" xmlns="http://www.w3.org/2000/svg"><path d="M87.358578 604.819911h843.025066v108.509867H87.358578z" fill="#DD852C" /><path d="M867.407644 496.321422H150.334578a40.925867 40.925867 0 0 0-40.891734 40.971378v67.538489h798.856534v-67.538489a40.914489 40.914489 0 0 0-40.891734-40.971378z" fill="#E6E6E6" /><path d="M215.369956 496.321422h-65.035378a40.925867 40.925867 0 0 0-40.891734 40.971378v67.538489h65.035378v-67.538489a40.925867 40.925867 0 0 1 40.891734-40.971378z" fill="#CCCCCC" /><path d="M786.5344 713.307022h78.506667v78.665956h-78.506667zM152.701156 713.307022h78.506666v78.665956h-78.506666zM870.855111 496.469333V277.6064a47.8208 47.8208 0 0 0-47.775289-47.866311H194.6624a47.8208 47.8208 0 0 0-47.775289 47.866311v218.851556" fill="#DD852C" /><path d="M465.157689 416.312889a145.157689 145.157689 0 0 1-38.673067 47.934578 143.7696 143.7696 0 0 1-90.737778 32.062577c-56.604444 0-105.585778-32.574578-129.388088-79.997155a145.635556 145.635556 0 0 1 73.773511-68.9152 143.985778 143.985778 0 0 1 55.614577-11.093333c56.615822 0.011378 105.608533 32.574578 129.410845 80.008533zM681.995378 336.304356c-56.6272 0-105.597156 32.5632-129.410845 80.008533 23.813689 47.433956 72.783644 80.008533 129.410845 80.008533 56.604444 0 105.585778-32.5632 129.399466-80.008533-23.802311-47.445333-72.795022-80.008533-129.399466-80.008533z" fill="#CCCCCC" /><path d="M465.157689 416.312889a145.157689 145.157689 0 0 1-38.673067 47.934578c-5.0176 0.603022-10.1376 0.898844-15.314489 0.898844-67.959467 0-123.904-51.529956-131.037866-117.737244a143.985778 143.985778 0 0 1 55.614577-11.093334c56.615822 0 105.608533 32.5632 129.410845 79.997156zM811.394844 416.312889a145.157689 145.157689 0 0 1-38.673066 47.934578c-5.006222 0.603022-10.148978 0.898844-15.314489 0.898844-67.970844 0-123.904-51.529956-131.037867-117.737244a143.928889 143.928889 0 0 1 55.6032-11.093334c56.6272 0 105.631289 32.5632 129.422222 79.997156z" fill="#E6E6E6" /><path d="M930.383644 590.256356h-7.543466v-52.963556a55.6032 55.6032 0 0 0-37.444267-52.519822V277.6064c0-34.429156-27.9552-62.429867-62.327467-62.429867H693.373156c-8.021333 0-14.529422 6.519467-14.529423 14.563556 0 8.044089 6.508089 14.563556 14.529423 14.563555H823.068444a33.314133 33.314133 0 0 1 33.234489 33.302756v204.140089h-82.375111a159.755378 159.755378 0 0 0 50.449067-58.891378 14.563556 14.563556 0 0 0 0-13.084444 160.244622 160.244622 0 0 0-53.805511-61.075911c-6.667378-4.482844-15.712711-2.696533-20.1728 3.982222s-2.685156 15.735467 3.982222 20.206933a131.401956 131.401956 0 0 1 40.516267 43.428978 129.558756 129.558756 0 0 1-112.890311 65.4336 129.592889 129.592889 0 0 1-112.913067-65.4336 129.592889 129.592889 0 0 1 112.913067-65.4336c13.084444 0 26.020978 1.934222 38.4 5.768533a14.563556 14.563556 0 1 0 8.578844-27.841422 158.970311 158.970311 0 0 0-46.978844-7.0656c-60.586667 0-115.143111 33.723733-142.404267 88.018489a14.563556 14.563556 0 0 0 0 13.084444 159.766756 159.766756 0 0 0 50.449067 58.891378H427.702044a159.857778 159.857778 0 0 0 50.449067-58.891378 14.563556 14.563556 0 0 0 0-13.084444c-27.261156-54.294756-81.8176-88.018489-142.392889-88.018489s-115.143111 33.723733-142.392889 88.018489a14.563556 14.563556 0 0 0 0 13.084444 159.766756 159.766756 0 0 0 50.449067 58.891378h-82.386489V277.6064a33.314133 33.314133 0 0 1 33.234489-33.302756h450.264178c8.032711 0 14.529422-6.519467 14.529422-14.563555 0-8.055467-6.496711-14.563556-14.529422-14.563556H194.6624c-34.360889 0-62.316089 28.000711-62.316089 62.429867v207.1552a55.614578 55.614578 0 0 0-37.432889 52.519822v52.963556h-7.554844A14.563556 14.563556 0 0 0 72.817778 604.819911v108.509867c0 8.044089 6.508089 14.552178 14.5408 14.552178h50.801778v64.1024c0 8.044089 6.508089 14.563556 14.5408 14.563555h78.506666a14.563556 14.563556 0 0 0 14.5408-14.563555v-64.1024h419.362134a14.563556 14.563556 0 1 0 0-29.127112H101.899378v-79.371377h101.080178c8.032711 0 14.529422-6.519467 14.529422-14.563556s-6.508089-14.563556-14.529422-14.563555h-78.995912v-52.963556a26.4192 26.4192 0 0 1 26.350934-26.407822h717.073066a26.407822 26.407822 0 0 1 26.339556 26.407822v52.963556H251.437511c-8.032711 0-14.5408 6.519467-14.5408 14.563555s6.508089 14.563556 14.5408 14.563556h664.405333v79.371377H713.568711a14.563556 14.563556 0 0 0 0 29.127112h58.436267v64.1024c0 8.044089 6.508089 14.563556 14.529422 14.563555h78.506667c8.032711 0 14.529422-6.530844 14.529422-14.563555v-64.1024h50.813155c8.032711 0 14.5408-6.508089 14.5408-14.552178v-108.509867a14.5408 14.5408 0 0 0-14.5408-14.563555zM216.667022 727.893333v49.538845h-49.425066v-49.538845h49.425066z m6.178134-311.580444a129.558756 129.558756 0 0 1 112.901688-65.4336 129.592889 129.592889 0 0 1 112.901689 65.4336 129.558756 129.558756 0 0 1-112.901689 65.4336 129.592889 129.592889 0 0 1-112.901688-65.4336z m627.666488 361.107911h-49.436444v-49.538844h49.436444v49.538844z" fill="" /></svg>